<svg width="19" height="19" viewBox="0 0 19 19" fill="none" xmlns="http://www.w3.org/2000/svg">
<path d="M18.9517 7.19319C18.8177 6.75829 18.4309 6.46338 17.9945 6.46338H12.2168L10.4571 0.730324C10.3235 0.295422 9.93688 0 9.49999 0C9.06314 0 8.67646 0.295422 8.5429 0.730324L6.78325 6.46334H1.00554C0.569094 6.46334 0.182265 6.75821 0.0483004 7.19315C-0.0852563 7.62806 0.0644801 8.10369 0.419357 8.3698L5.10427 11.8895L3.30083 17.6186C3.16375 18.0532 3.31114 18.5299 3.66454 18.7989C4.01815 19.0679 4.49727 19.0667 4.84981 18.7967L9.49999 15.2311L14.1502 18.7967C14.5028 19.0668 14.9819 19.0679 15.3356 18.799C15.6889 18.53 15.8363 18.0532 15.6996 17.6186L13.8957 11.8895L18.5807 8.36983C18.9355 8.10373 19.0853 7.62806 18.9517 7.19319Z" fill="#FBFF24"/>
</svg>
